<?xml version="1.0" standalone="no"?><!DOCTYPE svg PUBLIC "-//W3C//DTD SVG 1.1//EN" "http://www.w3.org/Graphics/SVG/1.1/DTD/svg11.dtd"><svg t="1743250883112" class="icon" viewBox="0 0 1024 1024" version="1.1" xmlns="http://www.w3.org/2000/svg" p-id="16705" xmlns:xlink="http://www.w3.org/1999/xlink" width="200" height="200"><path d="M0 0h1024v1024H0z" fill="#669900" p-id="16706"></path><path d="M149.0944 40.96v250.2656H76.8V375.808h72.2944V957.44h146.0736v-82.8416h75.3664v-82.8416l73.8304-1.7408V957.44h447.488v-333.1072c-99.4304 0.5632-198.8608 1.1264-298.3424 1.7408l-1.536-86.272c97.8944 1.1264 195.7888 2.304 293.7344 3.4304l4.608-248.5248h72.2944l-3.072-169.1648c-71.7824 1.1264-143.5136 2.304-215.296 3.4304l1.536-82.8416h-150.6816l-1.536 81.1008H369.0496c-0.9216 27.0848-1.8944 54.1184-2.816 81.2032-23.1424-0.0512-46.2848-0.0512-69.4272-0.1024V40.9088C247.5008 40.96 198.2976 40.96 149.0944 40.96z" fill="#FFFFFF" p-id="16707"></path><path d="M593.92 721.92l1.6896 138.24H752.64v-137.5232c-52.8896-0.256-105.8304-0.4608-158.72-0.7168zM287.0784 378.88c0.512 114.3296 0.9728 228.7104 1.4848 343.04H424.96V380.672c-45.9776-0.6144-91.904-1.1776-137.8816-1.792zM204.8 307.2c0.3072 25.6 0.5632 51.2 0.8704 76.8H286.72V307.6096c-27.2896-0.1536-54.6304-0.256-81.92-0.4096zM512 209.92l3.2256 76.8H814.08V210.3296c-100.7104-0.1536-201.3696-0.256-302.08-0.4096z" fill="#669900" p-id="16708"></path></svg>