<?xml version="1.0" standalone="no"?><!DOCTYPE svg PUBLIC "-//W3C//DTD SVG 1.1//EN" "http://www.w3.org/Graphics/SVG/1.1/DTD/svg11.dtd"><svg t="1743567112845" class="icon" viewBox="0 0 1024 1024" version="1.1" xmlns="http://www.w3.org/2000/svg" p-id="14611" xmlns:xlink="http://www.w3.org/1999/xlink" width="256" height="256"><path d="M0 0m219.428571 0l585.142858 0q219.428571 0 219.428571 219.428571l0 585.142858q0 219.428571-219.428571 219.428571l-585.142858 0q-219.428571 0-219.428571-219.428571l0-585.142858q0-219.428571 219.428571-219.428571Z" fill="#C62D27" p-id="14612"></path><path d="M307.712 295.789714c-14.299429-15.469714 0.365714-40.740571 26.002286-43.410285 27.574857-2.889143 49.371429 17.261714 56.539428 104.777142-45.933714 13.568-116.626286 17.188571-119.04-29.293714-1.133714-19.638857 8.411429-32.841143 36.498286-32.073143z" fill="#FFFFFF" p-id="14613"></path><path d="M377.344 270.628571h269.677714c24.758857 0 62.537143-62.354286-53.321143-62.354285V182.857143h44.8c98.084571 0 99.364571 178.834286-18.907428 178.834286h-223.232c-2.048-35.84-8.923429-67.803429-19.017143-91.062858zM283.574857 372.48a15257.161143 15257.161143 0 0 1-74.24 169.398857c54.491429-31.305143 216.137143-100.498286 241.115429 44.617143 5.485714 32.182857-36.096 176.310857-219.940572 176.310857-43.117714 0-84.187429-18.980571-119.515428-78.592 0 9.435429-1.426286 33.974857-1.426286 33.974857S132.534857 804.571429 241.481143 804.571429c116.589714 0 343.917714-52.955429 353.901714-206.994286 9.947429-154.038857-191.634286-168.594286-292.790857-136.557714 36.754286-72.411429 40.301714-86.381714 40.301714-86.381715-28.16 4.754286-59.318857-2.157714-59.318857-2.157714z" fill="#FFFFFF" p-id="14614"></path><path d="M661.211429 362.678857c104.594286-7.68 173.202286-13.165714 253.074285-49.554286-43.739429 87.917714-192.256 416.877714-73.508571 421.778286v27.904h-319.524572v-25.746286c19.748571 0 113.152-10.093714 168.228572-200.082285 38.180571-131.803429 42.496-153.307429-30.354286-152.685715 1.060571-10.678857 2.048-21.577143 2.048-21.577142z" fill="#FFFFFF" p-id="14615"></path></svg>