<?xml version="1.0" standalone="no"?>
<!DOCTYPE svg PUBLIC "-//W3C//DTD SVG 1.1//EN" "http://www.w3.org/Graphics/SVG/1.1/DTD/svg11.dtd">
<svg t="1743260315052" class="icon" viewBox="0 0 1024 1024" version="1.1"
  xmlns="http://www.w3.org/2000/svg" p-id="79586" xmlns:xlink="http://www.w3.org/1999/xlink"
  width="200" height="200">
  <path
    d="M198.208 537.856c106.688-22.4 92.16-147.2 88.96-174.464-5.248-41.984-55.68-115.456-124.288-109.696C76.608 261.248 63.936 383.36 63.936 383.36c-11.648 56.448 27.968 176.96 134.272 154.56z m113.28 216.96c-3.2 8.768-10.176 31.232-4.096 50.816 11.904 43.712 50.816 45.696 50.816 45.696h55.744v-133.632h-59.776c-26.88 7.872-39.872 28.288-42.752 37.12z m84.608-426.176c58.88 0 106.432-66.304 106.432-148.352C502.528 98.304 454.976 32 396.096 32 337.28 32 289.6 98.304 289.6 180.288c0 81.984 47.744 148.352 106.496 148.352z m253.568 9.792c78.656 10.048 129.216-72.256 139.264-134.528 10.24-62.208-40.448-134.592-96.128-147.008-55.936-12.544-125.568 75.008-131.84 132.16-7.68 69.76 10.24 139.52 88.704 149.376z m192.832 366.4s-121.792-92.16-192.768-191.936c-96.448-147.008-233.28-87.168-279.04-12.416-45.632 74.752-116.672 121.984-126.72 134.528-10.24 12.352-147.072 84.672-116.736 216.768 30.4 132.032 137.088 129.472 137.088 129.472s78.656 7.68 169.792-12.352a365.376 365.376 0 0 1 169.792 4.928s213.12 69.952 271.488-64.64c58.24-134.592-32.896-204.352-32.896-204.352z m-364.736 200.256H339.264c-59.84-11.712-83.648-51.712-86.72-58.496-2.944-6.912-19.968-39.04-10.88-93.696 25.792-81.984 99.584-87.872 99.584-87.872h73.792V576.192l62.72 1.024v327.872z m258.112-0.96H576.384c-61.76-15.616-64.64-58.688-64.64-58.688v-172.608l64.64-1.024v155.2c3.968 16.448 24.96 19.52 24.96 19.52h65.664v-173.76h68.864v231.36z m225.728-460.992c0-29.824-25.344-119.616-119.104-119.616-93.952 0-106.496 84.736-106.496 144.64 0 57.216 4.864 137.088 121.6 134.528 116.736-2.56 104-129.536 104-159.552z"
    fill="#4A90E2" p-id="79587"></path>
</svg>