<svg width="24" height="24" viewBox="0 0 24 24" fill="none" xmlns="http://www.w3.org/2000/svg">
  <circle cx="12" cy="12" r="10" fill="black" />
  <path
    d="M4.88817 9.02788H11.5213V9.58255H4.88817V9.02788ZM6.14945 12.6446H10.3968V13.1689H6.14945V12.6446ZM6.16465 14.5897H10.336V15.1216H6.16465V14.5897ZM7.85903 9.22544L8.52766 9.3698C8.48207 9.56228 8.43142 9.76237 8.3757 9.97005C8.32505 10.1777 8.27439 10.3753 8.22374 10.5627C8.17815 10.7501 8.1275 10.9173 8.07178 11.0642L7.53991 10.9274C7.58043 10.7704 7.62096 10.5931 7.66148 10.3955C7.70707 10.1929 7.74759 9.99031 7.78305 9.7877C7.81851 9.58508 7.84383 9.39766 7.85903 9.22544ZM5.74675 10.7223H10.7615V15.6154H10.1689V11.2541H6.32421V15.6154H5.74675V10.7223ZM13.6108 9.24823H14.1731V15.5927H13.6108V9.24823ZM12.3267 10.7603H15.2976V11.2921H12.3267V10.7603ZM13.6412 10.9654L13.9983 11.1174C13.9223 11.3858 13.8286 11.6644 13.7172 11.9532C13.6057 12.2368 13.4842 12.5205 13.3525 12.8041C13.2258 13.0827 13.0891 13.3461 12.9422 13.5943C12.8003 13.8375 12.656 14.0452 12.5091 14.2174C12.4787 14.1414 12.4331 14.0528 12.3723 13.9515C12.3166 13.8502 12.2634 13.764 12.2127 13.6931C12.3546 13.5412 12.4939 13.3588 12.6306 13.1461C12.7674 12.9333 12.8991 12.7028 13.0257 12.4546C13.1574 12.2064 13.2765 11.9557 13.3829 11.7024C13.4892 11.4441 13.5753 11.1984 13.6412 10.9654ZM14.8265 8.72396L15.176 9.17985C14.943 9.27102 14.6796 9.3546 14.3858 9.43058C14.092 9.50657 13.7881 9.57495 13.474 9.63573C13.16 9.69145 12.8561 9.73957 12.5623 9.7801C12.5521 9.71931 12.5293 9.64586 12.4939 9.55975C12.4635 9.47364 12.4331 9.40019 12.4027 9.33941C12.6864 9.28875 12.9776 9.23303 13.2765 9.17225C13.5804 9.11146 13.8666 9.04308 14.1351 8.9671C14.4086 8.88605 14.6391 8.80501 14.8265 8.72396ZM14.1351 11.3909C14.1857 11.4466 14.2617 11.5378 14.363 11.6644C14.4694 11.786 14.5808 11.9202 14.6973 12.0671C14.8138 12.209 14.9202 12.3457 15.0165 12.4774C15.1178 12.6041 15.1887 12.6952 15.2292 12.751L14.8797 13.1916C14.8341 13.1005 14.7657 12.984 14.6745 12.8421C14.5884 12.6952 14.4922 12.5433 14.3858 12.3862C14.2845 12.2292 14.1857 12.0823 14.0895 11.9456C13.9983 11.8088 13.9249 11.705 13.8691 11.634L14.1351 11.3909ZM17.7898 8.60999H18.352V15.5927H17.7898V8.60999ZM15.2064 13.5564L19.2486 12.9105L19.3322 13.4348L15.29 14.1034L15.2064 13.5564ZM15.8219 9.47617L16.1866 9.14186C16.3385 9.2381 16.493 9.34701 16.65 9.46857C16.8121 9.59014 16.9616 9.71425 17.0983 9.84088C17.2351 9.96752 17.3465 10.084 17.4326 10.1904L17.0375 10.5551C16.9616 10.4538 16.8552 10.3398 16.7184 10.2132C16.5867 10.0815 16.4424 9.95232 16.2853 9.82569C16.1283 9.69399 15.9738 9.57748 15.8219 9.47617ZM15.5179 11.4593L15.875 11.125C16.0371 11.2212 16.2068 11.3326 16.3841 11.4593C16.5614 11.5859 16.726 11.7151 16.878 11.8468C17.0299 11.9734 17.1515 12.0925 17.2427 12.2039L16.8628 12.5762C16.7716 12.4648 16.65 12.3432 16.4981 12.2115C16.3512 12.0747 16.1916 11.9405 16.0194 11.8088C15.8472 11.6771 15.68 11.5606 15.5179 11.4593Z"
    fill="white" />
</svg>