<?xml version="1.0" standalone="no"?>
<!DOCTYPE svg PUBLIC "-//W3C//DTD SVG 1.1//EN" "http://www.w3.org/Graphics/SVG/1.1/DTD/svg11.dtd">
<svg t="1743578877834" class="icon" viewBox="0 0 1256 1024" version="1.1"
  xmlns="http://www.w3.org/2000/svg" p-id="31566" xmlns:xlink="http://www.w3.org/1999/xlink"
  width="314" height="256">
  <path
    d="M581.530499 53.45249c193.974523 10.007084 348.013799 193.043631 382.712781 432.143121C954.841276 218.988276 832.289405 8.560246 671.570983 0.252039c-54.084798-2.792675-106.214724 17.733484-152.992023 56.132759 20.64252-3.025397 41.657396-4.049378 62.951539-2.95558"
    fill="#1296db" p-id="31567"></path>
  <path
    d="M871.38685 38.30223c141.588602 108.239413 174.635251 333.724614 73.540431 551.22742 152.433488-202.003462 157.041401-442.91819 30.672876-542.570129C933.081686 13.424154 878.694348 0.042588 818.30276 4.347962c18.594558 9.471821 36.165136 21.014876 53.08409 33.97754"
    fill="#1296db" p-id="31568"></path>
  <path
    d="M1112.813568 179.774471c68.187805 162.580206-14.149551 372.170434-207.542266 508.871855 229.790574-98.04615 351.99336-302.376842 292.60248-450.086055-19.990896-49.73288-60.042504-87.992522-113.894579-114.080757 11.28706 17.29131 20.665792 35.839324 28.834365 55.294957"
    fill="#1296db" p-id="31569"></path>
  <path
    d="M913.532964 737.960305c-133.140761 73.517159-251.71307 107.355066-377.197248 105.376921 124.018024 28.415464 290.531247 11.403421 422.042947-60.880306 176.287584-96.905808 258.880935-196.325024 277.778033-356.717635-75.728026 130.068819-170.911685 228.464054-322.623732 312.22102"
    fill="#1296db" p-id="31570"></path>
  <path
    d="M999.593886 816.248283c-132.535682 97.976334-565.912234 329.116701-770.429103-56.481844 236.888622 246.918979 620.555567 117.245788 770.429103 56.481844"
    fill="#1296db" p-id="31571"></path>
  <path
    d="M185.971416 824.277222C141.451528 740.543529 132.747692 648.152544 154.623643 566.978803c-41.052317 47.708191-65.651125 108.332502-65.651125 174.309439 0 153.713464 133.140761 278.336568 297.396572 278.336568 26.064963 0 51.385213-3.188303 75.495303-9.099465-109.659022-7.586766-216.758093-75.006585-275.892977-186.248123"
    fill="#1296db" p-id="31572"></path>
  <path
    d="M194.326167 429.974842a647.318698 647.318698 0 0 1 133.908747-112.17243 520.508 520.508 0 0 0-135.77053 71.981188c-180.569685 132.652043-245.639003 350.899563-145.33544 487.438078 3.700294 5.050087 7.610038 9.844178 11.659416 14.498635-50.617227-126.694337-0.721441-312.826099 135.514535-461.745471M773.201066 408.378158c21.852679 58.413444-36.374587 134.188014-130.045547 169.236081-93.694233 35.048066-187.341921 16.104423-209.1946-42.332293-21.852679-58.413444 36.374587-134.188014 130.045547-169.23608 93.67096-35.024794 187.341921-16.081151 209.1946 42.355565M702.430037 198.718113c7.260954 19.432361-12.10159 44.636249-43.239912 56.272393-31.138322 11.636144-62.276643 5.352626-69.537597-14.079734-7.284226-19.409088 12.10159-44.612977 43.216639-56.249121 31.161594-11.636144 62.299916-5.352626 69.56087 14.056462M537.592419 148.24052c8.54093 17.151676-6.81878 42.146114-34.326625 55.853492-27.484572 13.73065-56.714567 10.937975-65.255496-6.213701-8.564202-17.151676 6.795508-42.169386 34.303352-55.876764 27.507845-13.73065 56.714567-10.914703 65.278769 6.236973M364.027693 165.32238c8.866742 15.35971-3.909744 39.376712-28.555098 53.596079-24.645353 14.219368-51.827386 13.288477-60.694127-2.071233-8.890014-15.35971 3.909744-39.376712 28.555097-53.59608 24.645353-14.219368 51.827386-13.311749 60.694128 2.071234M200.446779 233.114555c10.937975 12.497219 3.537388 36.863305-16.523325 54.387338-20.060712 17.547305-45.194784 21.643228-56.132759 9.122737s-3.537388-36.886577 16.523325-54.41061c20.060712-17.547305 45.194784-21.619956 56.132759-9.099465"
    fill="#1296db" p-id="31573"></path>
</svg>