<svg t="1743566361056" class="icon" viewBox="0 0 1024 1024" version="1.1"
  xmlns="http://www.w3.org/2000/svg" p-id="1508" width="256" height="256">
  <path
    d="M493.056 112.64c-55.552 6.4-101.376 19.968-148.736 43.52-122.624 61.696-208.128 179.712-228.096 315.392-5.632 38.912-3.84 110.08 3.84 145.92 18.432 84.736 55.296 152.32 116.48 213.248 29.184 28.928 66.816 60.16 55.04 45.824-2.048-2.56-8.704-10.752-14.336-17.664C250.368 825.856 222.464 775.68 207.872 734.72c-29.952-85.76-31.232-184.576-2.816-272.128 10.24-32.256 37.12-85.248 57.856-114.432 22.272-30.976 67.072-75.776 98.048-98.048 54.272-38.656 123.904-65.792 191.744-75.008 91.904-12.032 189.696 8.192 271.616 56.576 11.008 6.4 10.496 5.888-6.4-10.24-54.784-51.712-133.888-90.624-210.688-103.936-34.56-5.888-86.016-7.936-114.176-4.864z"
    p-id="1509" fill="#d81e06"></path>
  <path
    d="M552.96 263.936c-86.784 61.696-87.04 62.208-1.792 6.912 32.256-20.992 59.392-37.376 60.416-36.608 1.28 0.512 1.536-1.792 0.768-5.12-0.512-3.584-1.28-6.4-1.536-6.144 0 0-26.112 18.432-57.856 40.96z"
    p-id="1510" fill="#d81e06"></path>
  <path
    d="M527.104 235.52c-4.864 2.56-30.464 25.6-56.832 51.2L422.4 333.312l0.512 207.872 0.768 207.616 0.768-207.36 0.768-207.36 64.512-45.568c35.584-25.088 66.816-47.36 69.632-49.408 4.352-3.328 4.608-4.096 1.28-6.144-6.144-4.096-23.552-2.56-33.536 2.56z"
    p-id="1511" fill="#d81e06"></path>
  <path
    d="M568.32 280.832c-63.232 38.4-85.248 53.248-56.32 37.376 86.016-46.848 120.576-64.768 122.88-63.488 3.072 1.792 3.328-6.144 0.512-10.752-1.28-2.304-21.248 8.704-67.072 36.864zM587.008 296.192c-39.68 22.272-71.68 40.704-71.424 41.216 0.512 0.512 33.28-15.36 72.704-35.072 39.424-19.712 72.192-35.072 73.216-34.304 0.768 1.024 1.536-1.536 1.536-5.12 0-3.84-0.768-6.912-1.792-6.912-1.28 0-34.56 18.176-74.24 40.192zM614.4 307.2c-38.656 19.456-69.888 35.584-69.12 35.584 0.768 0.256 32.512-13.568 70.4-30.464 38.144-16.896 70.656-30.208 72.448-29.44 2.304 0.768 3.072-0.512 2.56-4.352-0.512-3.072-1.792-5.888-3.328-6.144-1.28-0.512-34.304 15.36-72.96 34.816zM657.92 314.624c-3.584 1.28-39.424 15.616-79.872 32.256L504.32 377.088v201.728c0 111.104 0.768 201.984 1.792 201.984 4.864 0 125.184-48.128 142.336-57.088 72.192-37.12 125.696-102.656 146.688-179.712 6.4-23.552 6.912-29.696 7.168-74.24 0.256-53.248-2.048-67.328-16.128-97.536-13.056-27.648-35.84-47.616-64-55.808-14.592-4.352-52.736-5.376-64.256-1.792z m18.176 113.152c23.296 7.936 37.376 29.184 39.936 60.416 4.352 54.016-23.296 105.984-71.424 133.632-13.568 7.68-45.568 20.736-50.688 20.736-1.536 0-2.56-35.84-2.56-98.048v-97.792l27.648-10.752c28.416-11.008 42.24-13.056 57.088-8.192zM432.64 556.8c0 134.144 1.024 205.568 2.56 208.64 1.536 2.816 4.864 6.144 7.68 7.68 5.12 2.816 5.12 1.28 5.12-203.008v-205.568l-7.68-5.632-7.68-5.888v203.776z"
    p-id="1512" fill="#d81e06"></path>
  <path
    d="M263.168 370.432c-114.176 159.232-73.216 373.76 91.904 480.512 58.368 37.632 122.112 56.064 194.048 56.064 97.536 0 184.32-35.328 252.16-103.168 35.328-35.072 59.904-73.216 78.336-120.576 11.776-30.72 10.752-33.28-3.072-7.424-79.616 148.736-264.448 217.344-420.352 155.904-115.2-45.568-194.304-142.592-214.272-263.168-6.4-38.4-4.352-99.072 4.864-135.424 6.4-25.088 19.968-61.952 25.344-69.12 1.28-1.792 2.048-3.84 1.28-4.608-0.768-0.768-5.376 4.352-10.24 11.008z"
    p-id="1513" fill="#d81e06"></path>
  <path
    d="M455.68 576.256c0 193.024 0.256 205.056 4.608 206.08 2.304 0.768 5.12 1.28 6.4 1.28 1.024-0.256 1.792-92.16 1.792-204.288 0-210.688 0.256-207.872-9.472-208.128-2.56 0-3.328 42.752-3.328 205.056zM478.72 581.12v204.8h6.144c15.36 0 14.336 15.872 14.336-206.336V376.32h-20.48v204.8z"
    p-id="1514" fill="#d81e06"></path>
</svg>