<?xml version="1.0" standalone="no"?><!DOCTYPE svg PUBLIC "-//W3C//DTD SVG 1.1//EN" "http://www.w3.org/Graphics/SVG/1.1/DTD/svg11.dtd"><svg t="1742912784920" class="icon" viewBox="0 0 1024 1024" version="1.1" xmlns="http://www.w3.org/2000/svg" p-id="14246" xmlns:xlink="http://www.w3.org/1999/xlink" width="200" height="200"><path d="M50.176 378.368c-12.8-41.984-25.6-83.968-38.4-125.44C230.4 178.176 449.024 103.424 667.136 28.672c-111.104 296.96-222.208 593.408-333.312 890.368L235.52 820.736C315.904 622.08 395.776 423.936 476.16 225.28 334.336 276.48 192 327.168 50.176 378.368z" fill="#F9D325" p-id="14247"></path><path d="M765.952 203.264L678.4 66.56c-107.52 296.96-215.04 593.408-322.048 890.368C578.56 880.64 800.768 803.84 1022.464 727.552c-16.384-41.984-32.768-83.968-49.152-125.44-134.656 47.104-269.312 94.72-403.968 141.824l196.608-540.672z" fill="#2562AD" p-id="14248"></path></svg>