<?xml version="1.0" standalone="no"?>
<!DOCTYPE svg PUBLIC "-//W3C//DTD SVG 1.1//EN" "http://www.w3.org/Graphics/SVG/1.1/DTD/svg11.dtd">
<svg t="1743341668501" class="icon" viewBox="0 0 1024 1024" version="1.1"
  xmlns="http://www.w3.org/2000/svg" p-id="100875" xmlns:xlink="http://www.w3.org/1999/xlink"
  width="200" height="200">
  <path
    d="M740.538044 472.436593a20.211191 20.211191 0 0 0-18.644824-1.566367c-6.164413 3.132735-4.648574 10.863515 0 17.078457a48.456331 48.456331 0 0 0 12.429883 12.278298c13.945722 12.379355 13.945722 21.72703-1.566368 34.106385a13.945722 13.945722 0 0 0 6.214942 24.859765h3.132734c10.863515 0 21.72703-17.078457 29.457811-24.859765s10.863515-21.72703 3.132735-27.891444c-10.863515-10.711931-21.828086-23.141814-34.156913-34.005329zM586.932991 697.286095c-6.214941 4.648574-9.297148 10.863515-13.99625 15.512089-4.648574 6.214941-10.863515 9.297148-17.027928 4.648574a61.290437 61.290437 0 0 1-15.512089-12.429882c-4.699102-4.648574-7.781309-10.863515-12.429883-13.945722a16.270009 16.270009 0 0 0-20.211191-1.566368c-4.648574 4.648574-4.648574 15.512089 0 21.727031 9.297148 7.781309 18.594296 17.078457 27.891444 24.809237 6.214941 6.214941 15.512089 17.078457 23.293397 20.211191 13.945722 4.648574 35.672752-27.941972 43.454061-37.23912 4.648574-4.699102 9.297148-6.214941 9.297148-12.429882-1.515839-15.360505-15.461561-15.360505-24.758709-9.297148zM507.806178 298.670877c26.375604-21.72703 34.106385 17.027929 55.580776 20.211191 12.429883 1.515839 12.429883-4.648574 7.781308-13.996249-6.214941-13.945722-21.72703-26.375604-34.156913-37.23912a32.23685 32.23685 0 0 0-15.512089-9.297148H520.438172A26.830356 26.830356 0 0 0 503.157604 267.798283c-9.347676 6.214941-31.074706 18.644824-24.859765 32.590546 7.781309 15.309977 18.644824 6.012829 29.508339-1.717952z"
    fill="#d81e06" p-id="100876"></path>
  <path
    d="M512 0a512 512 0 1 0 512 512A512 512 0 0 0 512 0zM423.980263 259.86539c1.566367-26.375604 20.211191-43.454061 52.751208-43.454061 37.23912 0 83.825915 12.429883 114.850094 35.672753 18.594296 13.99625 23.293398 41.887694 29.457811 63.614724 6.214941 23.293398 10.863515 52.751209-1.515839 76.044607-12.429883 24.809237-35.72328 40.422382-54.317576 57.399782-10.863515 9.347676-34.156913 7.781309-48.102635-3.082206-18.644824-15.512089-35.672752-32.590546-52.751209-49.669002-13.99625-15.512089-32.590546-29.457811-38.805487-49.618475-9.297148-24.859765-3.082207-60.532518-1.566367-86.908122z m-48.102635 327.370769c-31.024178-1.515839-60.633573-1.515839-91.506168-7.730781-34.156913-6.214941-62.098885-24.859765-76.044607-57.399782a49.264778 49.264778 0 0 1-4.648574-21.727031v-80.844765c0-21.72703 9.297148-38.805487 29.457811-48.102635a78.72259 78.72259 0 0 1 46.536268-9.297147c31.074706 3.082207 62.098885 4.648574 93.123063 9.297147 10.863515 1.566367 20.211191 10.863515 29.457811 17.078457 12.429883 9.297148 26.426132 20.211191 38.805487 31.024178 15.512089 15.512089 31.024178 32.590546 45.020428 49.669003 9.297148 12.379355 7.730781 32.540018-3.132734 44.9699a187.40827 187.40827 0 0 1-35.672753 34.156913c-18.594296 17.179512-45.020428 40.47291-71.396032 38.906543z m285.533603 192.41054c-13.99625 20.211191-27.941972 27.941972-52.751209 27.941972-31.024178-1.566367-68.263298 3.082207-99.338005-4.648574-62.048357-15.512089-55.580776-88.474489-65.130563-136.425541-4.699102-26.426132 1.515839-41.938222 18.594296-63.665252 9.297148-10.863515 18.644824-23.24287 27.941971-34.106385a236.016185 236.016185 0 0 1 29.457811-26.375604c10.863515-9.297148 35.72328-6.214941 46.586796 1.566367a331.261423 331.261423 0 0 1 66.696931 65.130564 207.619461 207.619461 0 0 1 21.72703 29.508339c7.781309 13.945722 6.214941 34.106385 7.781309 49.618474 3.082207 26.274549 15.512089 68.21277-1.566367 91.45564z m134.960229-176.847923a62.856805 62.856805 0 0 1-26.375605 10.863516c-38.754959 4.699102-83.775387-6.164413-113.233198-31.024179a457.834008 457.834008 0 0 1-55.883944-54.317576c-13.945722-15.512089-21.72703-35.672752-7.730781-54.267048s35.672752-35.72328 54.267049-49.669003c18.644824-12.429883 40.422382-7.781309 62.098885-6.214941 34.106385 3.132735 65.181091 10.863515 86.857594 38.805487 17.078457 23.24287 20.211191 55.580776 23.293397 82.20902 3.132735 23.24287-4.648574 49.618474-23.293397 63.564196z"
    fill="#d81e06" p-id="100877"></path>
  <path
    d="M313.829271 453.791769c9.297148-6.164413 31.024178-26.375604 7.781308-34.106385-15.512089-4.648574-29.508339 13.945722-38.805487 23.24287-13.945722 12.429883-27.941972 21.72703-10.863515 38.805487 12.429883 12.429883 26.375604 29.508339 43.454061 37.23912a13.036218 13.036218 0 0 0 9.297148 3.132735c9.297148 0 15.512089-9.347676 7.781309-20.211192-10.863515-13.945722-45.020428-31.024178-18.644824-48.102635z"
    fill="#d81e06" p-id="100878"></path>
</svg>