<?xml version="1.0" standalone="no"?>
<!DOCTYPE svg PUBLIC "-//W3C//DTD SVG 20010904//EN" "http://www.w3.org/TR/2001/REC-SVG-20010904/DTD/svg10.dtd">
<svg version="1.0" xmlns="http://www.w3.org/2000/svg"
  width="64.000000pt" height="64.000000pt" viewBox="0 0 64.000000 64.000000"
  preserveAspectRatio="xMidYMid meet">

  <g transform="translate(0.000000,64.000000) scale(0.100000,-0.100000)"
    fill="red" stroke="none">
    <path
      d="M60 560 c0 -5 11 -10 25 -10 14 0 29 -8 35 -19 12 -24 13 -400 1
-420 -5 -8 -22 -20 -38 -27 -24 -10 1 -12 164 -13 l191 -1 22 65 c12 35 19 68
16 73 -3 5 20 17 51 26 53 17 54 18 32 30 -13 7 -69 58 -123 114 -55 56 -101
101 -102 99 -1 -1 -7 -67 -13 -146 -6 -79 -16 -152 -22 -162 -12 -23 -11 -23
35 -4 39 17 45 24 19 21 -14 -1 -18 7 -18 33 0 30 4 35 45 51 44 18 45 18 68
-3 24 -22 29 -47 10 -47 -9 0 -9 -3 1 -9 21 -13 -24 -80 -65 -97 -41 -17 -165
-19 -182 -2 -17 17 -17 409 0 426 7 7 25 12 40 12 15 0 28 5 28 10 0 6 -43 10
-110 10 -67 0 -110 -4 -110 -10z m324 -226 l28 -34 -37 -16 c-20 -8 -39 -13
-42 -10 -8 7 7 96 15 95 4 0 20 -16 36 -35z" />
  </g>
</svg>