<?xml version="1.0" standalone="no"?><!DOCTYPE svg PUBLIC "-//W3C//DTD SVG 1.1//EN" "http://www.w3.org/Graphics/SVG/1.1/DTD/svg11.dtd"><svg t="1743231422509" class="icon" viewBox="0 0 1024 1024" version="1.1" xmlns="http://www.w3.org/2000/svg" p-id="5212" xmlns:xlink="http://www.w3.org/1999/xlink" width="200" height="200"><path d="M512.694574 1019.832558c-280.607752 0-508.031008-227.423256-508.031008-508.031008s227.423256-508.031008 508.031008-508.031007 508.031008 227.423256 508.031007 508.031007c-0.19845 280.409302-227.621705 508.031008-508.031007 508.031008z" fill="#FF5252" p-id="5213"></path><path d="M603.981395 257.984496H321.984496c-5.755039 0-10.517829 4.762791-10.517829 10.51783v80.173643c0 5.755039 4.762791 10.517829 10.517829 10.517829h69.655814v2.976745l1.587597-1.786047 115.894574 137.327132c7.144186 8.334884 25.40155 4.762791 25.40155-4.96124v-133.35814h69.655814c5.755039 0 10.517829-4.762791 10.517829-10.517829v-80.173644c-0.19845-5.953488-4.96124-10.716279-10.716279-10.716279zM703.404651 563.39845h-80.173643c-5.755039 0-10.517829 4.762791-10.51783 10.517829v90.493023h-78.586046v-0.793798L420.018605 529.463566c-7.937984-9.525581-28.576744-5.35814-28.576745 5.556589v129.389147h-69.655813c-5.755039 0-10.517829 4.762791-10.51783 10.51783v80.173643c0 5.755039 4.762791 10.517829 10.51783 10.51783h381.420155c5.755039 0 10.517829-4.762791 10.517829-10.51783v-180.986046c0.19845-6.151938-4.564341-10.716279-10.31938-10.716279z" fill="#FFFFFF" p-id="5214"></path></svg>