<?xml version="1.0" standalone="no"?><!DOCTYPE svg PUBLIC "-//W3C//DTD SVG 1.1//EN" "http://www.w3.org/Graphics/SVG/1.1/DTD/svg11.dtd"><svg t="1745588209626" class="icon" viewBox="0 0 1024 1024" version="1.1" xmlns="http://www.w3.org/2000/svg" p-id="6208" xmlns:xlink="http://www.w3.org/1999/xlink" width="256" height="256"><path d="M214.891232 785.115308l-36.544311 123.541711c-1.263783 4.314259 0.074701 9.18315 3.716648 12.159947 3.666506 3.00238 8.597819 3.279696 12.487405 1.084705l130.321115-73.817216c56.93471 22.957875 120.063493 36.126802 186.834222 36.126802 247.2625 0 447.74865-175.511339 447.748651-392.017348S758.968811 100.17656 511.706311 100.17656c-247.237941 0-447.724091 175.511339-447.724091 392.017349 0 116.653837 58.519812 221.097584 150.909012 292.921399zM607.909373 446.078615c0-34.161031 27.692712-61.853743 61.853744-61.853743 34.161031 0 61.853743 27.692712 61.853743 61.853743s-27.692712 61.853743-61.853743 61.853743c-34.161031 0-61.853743-27.692712-61.853744-61.853743z m-319.583642 0c0-34.161031 27.692712-61.853743 61.853743-61.853743 34.161031 0 61.854766 27.692712 61.854767 61.853743s-27.692712 61.853743-61.854767 61.853743c-34.161031 0-61.853743-27.692712-61.853743-61.853743z" fill="#13BC15" p-id="6209"></path></svg>