<?xml version="1.0" standalone="no"?>
<!DOCTYPE svg PUBLIC "-//W3C//DTD SVG 1.1//EN" "http://www.w3.org/Graphics/SVG/1.1/DTD/svg11.dtd">
<svg t="1743577710318" class="icon" viewBox="0 0 1024 1024" version="1.1"
  xmlns="http://www.w3.org/2000/svg" p-id="10113" xmlns:xlink="http://www.w3.org/1999/xlink"
  width="256" height="256">
  <path
    d="M781.6 317.1c24.2-9.8 49-28.2 69.2-50.7 14.4-16.7 26.5-35.7 33.4-55.3 6.3-19 8.1-38.6 3.5-58.8-1.2-4-2.3-8.1-4-12.7-19.6 73.2-82.4 111.2-123.9 135.5l21.8 42zM433.5 803.5s17.9-4.6 42.7 24.8c24.8 29.4 14.4 51.9 14.4 51.9s-43.8-5.8-58.8-23.6c-14.4-17.3 1.7-53.1 1.7-53.1z m179.8 0s-17.9-4.6-42.7 24.8c-24.8 29.4-14.4 51.9-14.4 51.9s43.8-5.8 58.8-23.6c14.5-17.3-1.7-53.1-1.7-53.1z m-204.6-19.6l-41.5 45c4 17.3 9.8 31.7 17.3 44.4s17.3 23.6 29.4 32.3h217.9c11.5-8.6 21.3-19.6 29.4-32.3 7.5-12.7 13.3-27.7 17.3-44.4l-41.5-45H408.7z m-103.1 11l57.6-62.3c-61.7-92.2-110.1-193-138.3-306.6-70.9 14.4-159.7 1.7-210.4-102.6 42.1-18.4 84.7-23.1 123.3-20.2-0.6-1.2-1.7-1.7-2.3-2.9-19-21.3-34-46.1-43.2-73.2-9.2-27.7-12.1-57.1-5.2-87 7.5-31.1 25.4-62.3 57.6-89.9l42.7 21.9c-10.4 94.5 65.7 137.2 107.8 161.4 5.8 3.5 11 6.3 16.7 9.8l20.2 12.1-1.7 3.5H694l-1.7-3.5 20.2-12.1c5.2-3.5 11-6.3 16.7-9.8 42.7-24.2 118.7-67.4 108.4-161.4l42.7-21.9c31.7 28.2 50.1 58.8 57.6 89.9 6.9 29.4 4.6 59.4-5.2 87-9.2 26.5-24.2 51.3-43.2 73.2-0.6 1.2-1.7 1.7-2.3 2.9 38.6-2.9 80.7 1.7 123.3 20.2-46.7 96.3-126.2 114.7-193.7 105.5-27.7 111.2-75.5 209.8-136 300.9l59.9 65.1 11 12.1-2.3 16.1c-4.6 33.4-14.4 61.7-28.8 85.9-15 24.8-34.6 45-58.8 59.9l-8.6 5.2h-260l-8.6-5.2c-24.2-15.6-43.8-35.2-58.8-59.9-14.4-24.2-24.2-52.5-28.8-85.9l-2.3-16.1 10.9-12.1z m-132-528.5c20.2 23.1 45 40.9 69.2 50.7l21.9-42.1c-41.5-23.6-104.3-61.7-123.9-135.5-1.7 4-2.9 8.1-4 12.7-4.6 19.6-2.9 39.8 3.5 58.8 6.7 19.6 18.8 38.6 33.3 55.4z m545.8 173.4s-41.5-13.3-75.5 1.2c-34 14.4-55.9 67.4-55.9 67.4s83.6 1.2 106.1-5.2c21.8-6.3 25.3-63.4 25.3-63.4z m-387.9 0s3.5 57.1 25.4 63.4 106.1 5.2 106.1 5.2-22-53-56-67.4c-34-14.4-75.5-1.2-75.5-1.2z"
    p-id="10114" fill="#2dae26"></path>
</svg>