<?xml version="1.0" standalone="no"?><!DOCTYPE svg PUBLIC "-//W3C//DTD SVG 1.1//EN" "http://www.w3.org/Graphics/SVG/1.1/DTD/svg11.dtd"><svg t="1743259933187" class="icon" viewBox="0 0 1024 1024" version="1.1" xmlns="http://www.w3.org/2000/svg" p-id="73800" xmlns:xlink="http://www.w3.org/1999/xlink" width="200" height="200"><path d="M317.6448 48.3328C125.3888 125.3376-21.6576 396.544 23.6032 601.8048c26.368 131.9424 48.9984 131.9424 143.2576-11.008 184.7296-282.2144 565.4528-443.4944 712.448-300.544 64.1024 58.624 67.84 58.624 52.7872-25.6512-15.104-117.2992-207.36-172.288-422.1952-117.2992-169.6256 47.6672-233.728 32.9728-94.2592-22.016C705.8944 19.0464 705.8944 15.36 543.7952 15.36 460.9024 15.36 359.1168 30.0032 317.6448 48.3328z" fill="#0099FF" p-id="73801"></path><path d="M415.6416 418.56c-131.9424 106.2912-267.6224 293.2224-267.6224 370.176s124.416 157.5936 290.2528 194.2528l124.416 25.6512-56.5248-131.9424c-64.1024-150.272-71.6288-307.8656-18.8416-439.808 41.4208-113.664 45.1584-113.664-71.68-18.3296zM932.096 587.1616c-33.9456 32.9728-113.1008 58.624-177.152 62.3104-105.5744 3.6864-109.312 7.3216-52.7872 47.6672 33.9456 25.6512 109.312 47.6672 165.888 47.6672 79.1552 0 105.5744-22.016 124.416-95.2832 33.8944-121.0368 15.0016-139.3664-60.3648-62.3616z" fill="#0099FF" p-id="73802"></path><path d="M524.9536 693.4528c0 62.3104 105.5744 271.2064 135.7312 271.2064 11.3152 0 52.7872-18.3296 94.2592-36.6592 86.6816-47.6672 94.2592-109.9776 15.104-109.9776-33.9456 0-101.7856-40.2944-150.784-91.648-67.8912-62.2592-94.3104-73.2672-94.3104-32.9216z" fill="#0099FF" p-id="73803"></path></svg>