<?xml version="1.0" standalone="no"?>
<!DOCTYPE svg PUBLIC "-//W3C//DTD SVG 1.1//EN" "http://www.w3.org/Graphics/SVG/1.1/DTD/svg11.dtd">
<svg t="1743577420741" class="icon" viewBox="0 0 1024 1024" version="1.1"
  xmlns="http://www.w3.org/2000/svg" p-id="6465" xmlns:xlink="http://www.w3.org/1999/xlink"
  width="256" height="256">
  <path d="M1024 0H0v1024h1024V0z" fill="#EE340C" p-id="6466"></path>
  <path
    d="M835.072 606.3104a137.85088 137.85088 0 0 1-37.23264-9.87136c38.11328-40.31488 48.9984-90.97216 48.9984-105.65632H666.3168v39.424h115.2512c-15.9744 40.87808-60.08832 70.8096-105.84064 76.09344a59.136 59.136 0 0 1-4.74112 0.19456c-8.4992 0-16.77312-1.61792-22.44608-3.39968l14.77632 46.91968c37.65248 0 67.91168-8.2944 92.17024-21.23776 24.20736 12.88192 54.43584 21.23776 92.01664 21.23776l14.77632-46.91968a78.36672 78.36672 0 0 1-22.43584 3.39968c-1.56672 0-3.14368-0.06144-4.7616-0.19456zM546.58048 392.20224h88.65792v-38.2976h-88.65792v38.2976z m290.5088 42.00448v-80.46592H675.19488v39.29088c0 14.848-6.00064 37.74464-30.0032 44.89216l37.1712 39.29088c40.04864-31.9488 43.49952-63.5904 44.01152-74.3936l0.17408-10.71104h59.62752V445.44c0 7.41376 2.89792 14.37696 8.15104 19.64032a27.46368 27.46368 0 0 0 19.61984 8.16128h50.92352v-47.79008c-12.3904 8.94976-27.8016 8.7552-27.8016 8.7552zM635.22816 586.05568l-18.25792 4.8128V466.70848h18.25792v-43.14112h-88.65792v43.14112h18.2272v137.8816l-18.2272 4.8128v42.752l88.65792-23.38816v-42.71104zM501.63712 353.8944h-53.67808v42.83392h-55.53152l7.7824-42.83392h-59.16672l-7.75168 42.83392h-47.94368v43.1616h40.06912l-38.5024 212.26496h59.33056l38.4-212.2752h116.992v-85.98528z m-315.46368 53.80096c-10.57792 7.50592-20.2752 10.69056-27.45344 12.01152l35.09248 48.06656c3.2768-1.56672 6.67648-3.35872 10.40384-5.45792l8.23296-4.63872v194.47808h52.28544V433.17248h-23.04l7.1168-8.97024c23.9104-30.1568 30.38208-60.1088 31.96928-70.46144h-57.87648c-2.56 10.10688-10.8544 32.0512-36.74112 53.9648"
    fill="#FFFFFF" p-id="6467"></path>
  <path
    d="M465.42848 468.24448h-55.64416v156.13952c0 7.41376 2.94912 14.41792 8.18176 19.6608a27.3408 27.3408 0 0 0 19.57888 8.12032h64.88064v-53.80096c-6.31808 6.6048-19.7632 11.22304-26.61376 11.22304h-10.38336V468.24448z"
    fill="#FFFFFF" p-id="6468"></path>
</svg>