<?xml version="1.0" standalone="no"?>
<!DOCTYPE svg PUBLIC "-//W3C//DTD SVG 1.1//EN" "http://www.w3.org/Graphics/SVG/1.1/DTD/svg11.dtd">
<svg t="1744813222758" class="icon" viewBox="0 0 1024 1024" version="1.1"
  xmlns="http://www.w3.org/2000/svg" p-id="3203" xmlns:xlink="http://www.w3.org/1999/xlink"
  width="256" height="256">
  <path
    d="M916.210526 126.652632h-59.28421c-223.663158 0-323.368421-102.4-323.368421-102.4L512 0l-21.557895 24.252632S385.347368 134.736842 140.126316 126.652632H107.789474v460.8c0 121.263158 40.421053 296.421053 393.431579 431.157894l10.778947 5.389474 10.778947-5.389474c353.010526-134.736842 393.431579-309.894737 393.431579-431.157894V126.652632z"
    fill="#FFFFFF" p-id="3204"></path>
  <path
    d="M512 970.105263l10.778947-2.694737C827.284211 846.147368 862.315789 687.157895 862.315789 579.368421V167.073684h-48.505263c-194.021053 0-280.252632-91.621053-280.252631-91.621052L512 53.894737l-18.863158 21.557895S401.515789 175.157895 188.631579 167.073684H161.684211v412.294737c0 107.789474 35.031579 266.778947 339.536842 388.042105l10.778947 2.694737z"
    fill="#04B49C" p-id="3205"></path>
  <path
    d="M493.136842 75.452632S401.515789 175.157895 188.631579 167.073684H161.684211v412.294737c0 107.789474 35.031579 266.778947 339.536842 388.042105l10.778947 2.694737V53.894737l-18.863158 21.557895z"
    fill="#11C2AA" p-id="3206"></path>
  <path
    d="M614.4 409.6h18.863158c-18.863158-80.842105-105.094737-142.821053-204.8-142.821053-110.484211 0-202.105263 75.452632-202.105263 172.463158 0 56.589474 29.642105 102.4 80.842105 137.431579l-21.557895 61.978948 70.063158-35.031579c24.252632 5.389474 45.810526 10.778947 70.063158 10.778947h18.863158c-2.694737-13.473684-5.389474-26.947368-5.389474-43.115789 2.694737-88.926316 78.147368-161.684211 175.157895-161.684211z m-110.484211-53.894737c16.168421 0 24.252632 10.778947 24.252632 24.252632 0 16.168421-10.778947 24.252632-24.252632 24.252631-16.168421 0-29.642105-10.778947-29.642105-24.252631s16.168421-24.252632 29.642105-24.252632z m-140.126315 51.2c-16.168421 0-29.642105-10.778947-29.642106-24.252631 0-16.168421 16.168421-24.252632 29.642106-24.252632 16.168421 0 24.252632 10.778947 24.252631 24.252632s-10.778947 24.252632-24.252631 24.252631z m0 0"
    fill="#FFFFFF" p-id="3207"></path>
  <path
    d="M797.642105 568.589474c0-80.842105-80.842105-148.210526-172.463158-148.210527-97.010526 0-172.463158 64.673684-172.463158 148.210527 0 80.842105 75.452632 148.210526 172.463158 148.210526 18.863158 0 40.421053-5.389474 61.978948-10.778947l56.589473 29.642105-16.168421-51.2c40.421053-29.642105 70.063158-70.063158 70.063158-115.873684z m-226.357894-24.252632c-10.778947 0-21.557895-10.778947-21.557895-21.557895s10.778947-21.557895 21.557895-21.557894c16.168421 0 24.252632 10.778947 24.252631 21.557894s-10.778947 21.557895-24.252631 21.557895z m110.48421 0c-10.778947 0-18.863158-10.778947-18.863158-21.557895s10.778947-21.557895 18.863158-21.557894c16.168421 0 24.252632 10.778947 24.252632 21.557894s-8.084211 21.557895-24.252632 21.557895z m0 0"
    fill="#FFFFFF" p-id="3208"></path>
</svg>