<svg width="24" height="24" viewBox="0 0 24 24" fill="none" xmlns="http://www.w3.org/2000/svg">
  <g clip-path="url(#clip0_214_2)">
    <path
      d="M24.01 15.675C24.01 18.3812 21.8162 20.575 19.11 20.575H4.41001C1.93391 20.305 0 18.2158 0 15.675C0 13.5472 1.36661 11.6989 3.32037 11.0352C3.31179 10.9286 3.30751 10.8214 3.30751 10.7137C3.30751 8.51487 5.08989 6.73249 7.28876 6.73249C7.90458 6.73179 8.51211 6.87439 9.0633 7.14899C10.0085 4.9288 12.2057 3.42498 14.7 3.42498C18.0828 3.42498 20.825 6.16727 20.825 9.55C20.825 10.0508 20.7648 10.5438 20.6472 11.0209C22.6197 11.6708 24.01 13.5279 24.01 15.675ZM17.7575 7.22408C17.4833 6.95187 17.1769 6.71409 16.8451 6.51603C16.7446 6.45579 16.6415 6.39996 16.5361 6.3487C16.4753 6.3193 16.4283 6.29859 16.3969 6.28622C16.322 6.25552 16.2418 6.23996 16.1608 6.24045C16.0799 6.24095 15.9999 6.25748 15.9253 6.28909C15.8508 6.3207 15.7833 6.36677 15.7267 6.42463C15.6701 6.48249 15.6255 6.55099 15.5956 6.62618C15.5656 6.70138 15.5508 6.78176 15.5521 6.86269C15.5534 6.94362 15.5707 7.0235 15.6031 7.0977C15.6354 7.17189 15.6822 7.23895 15.7406 7.29498C15.799 7.35101 15.8679 7.3949 15.9434 7.42413C15.9483 7.42609 15.969 7.43515 16.0029 7.45157C16.0663 7.48219 16.1387 7.5209 16.2177 7.56794C16.4638 7.71511 16.6911 7.89166 16.8946 8.09371C17.7519 8.94411 18.1164 10.1302 17.7021 11.7905C17.682 11.8712 17.6785 11.9551 17.6919 12.0372C17.7053 12.1192 17.7352 12.1977 17.7798 12.2678C17.8245 12.3379 17.883 12.3982 17.9517 12.445C18.0204 12.4918 18.0979 12.5241 18.1795 12.54C18.6184 12.6254 19.1623 12.8286 19.6155 13.1288C20.2206 13.5299 20.5987 14.0521 20.6956 14.7255C20.7187 14.8863 20.8048 15.0313 20.9348 15.1286C21.0649 15.226 21.2283 15.2676 21.3891 15.2445C21.5499 15.2213 21.6949 15.1353 21.7922 15.0052C21.8895 14.8751 21.9312 14.7117 21.9081 14.5509C21.7569 13.5009 21.1689 12.6889 20.2923 12.1078C19.888 11.8398 19.4414 11.635 19.0135 11.4948C19.3101 9.68646 18.8016 8.25995 17.7575 7.22408Z"
      fill="#0586FE" />
    <path
      d="M10.838 13.044C10.95 12.6893 11.0573 12.5167 11.16 12.526C11.272 12.526 11.4167 12.708 11.594 13.072C11.7153 13.3147 11.7853 13.5013 11.804 13.632C11.832 13.7533 11.832 13.9167 11.804 14.122L11.734 14.612H12.014C12.182 14.612 12.378 14.6493 12.602 14.724C12.826 14.7893 12.9893 14.864 13.092 14.948C13.1573 15.004 13.2087 15.032 13.246 15.032C13.2833 15.032 13.3347 14.9947 13.4 14.92C13.5213 14.78 13.5867 14.654 13.596 14.542C13.6053 14.4207 13.5633 14.2667 13.47 14.08C13.386 13.9307 13.3393 13.8327 13.33 13.786C13.33 13.7393 13.358 13.7067 13.414 13.688C13.5073 13.6507 13.7033 13.688 14.002 13.8C14.31 13.912 14.5247 14.0193 14.646 14.122C14.7487 14.2153 14.8 14.3927 14.8 14.654C14.8093 14.906 14.7673 15.1067 14.674 15.256C14.506 15.4987 14.24 15.6807 13.876 15.802C13.512 15.914 13.2507 15.8953 13.092 15.746C13.036 15.6713 12.812 15.648 12.42 15.676C12.168 15.6947 11.986 15.7273 11.874 15.774C11.7713 15.8207 11.6407 15.9187 11.482 16.068C11.3047 16.236 10.964 16.4507 10.46 16.712C9.96533 16.9733 9.648 17.104 9.508 17.104C9.37733 17.104 9.27 17.02 9.186 16.852C9.102 16.6747 9.06 16.4553 9.06 16.194C9.06 15.97 9.07867 15.816 9.116 15.732C9.16267 15.6387 9.27933 15.5173 9.466 15.368C9.69 15.1813 9.93733 14.85 10.208 14.374C10.488 13.898 10.698 13.4547 10.838 13.044ZM14.45 9.964C14.5713 9.88933 14.7487 9.88 14.982 9.936C15.2153 9.98267 15.4767 10.0247 15.766 10.062C15.962 10.09 16.0927 10.1273 16.158 10.174C16.2233 10.2113 16.298 10.3187 16.382 10.496C16.5033 10.748 16.5313 10.9067 16.466 10.972C16.4007 11.0373 16.13 11.1027 15.654 11.168C15.1873 11.2333 14.856 11.2987 14.66 11.364C14.4733 11.42 13.9693 11.4947 13.148 11.588C12.5133 11.672 12.042 11.77 11.734 11.882C11.426 11.9847 11.0153 12.1993 10.502 12.526C9.76467 12.9833 9.144 13.3007 8.64 13.478L7.982 13.688L7.254 13.478C6.74067 13.3193 6.414 13.212 6.274 13.156C6.14333 13.1 6.08733 13.0347 6.106 12.96C6.134 12.8947 6.26 12.8247 6.484 12.75C6.708 12.666 7.21667 12.5027 8.01 12.26C8.81267 12.036 9.48 11.8027 10.012 11.56C10.5533 11.308 11.1647 11.0793 11.846 10.874C13.3953 10.4073 14.2633 10.104 14.45 9.964ZM12.77 7.85C13.1153 7.906 13.344 8.05533 13.456 8.298C13.5493 8.53133 13.4653 8.67133 13.204 8.718C12.9707 8.774 12.686 8.86733 12.35 8.998C12.0233 9.12867 11.8227 9.23133 11.748 9.306C11.6173 9.418 11.4027 9.502 11.104 9.558C10.8147 9.60467 10.5673 9.6 10.362 9.544C10.138 9.47867 9.90933 9.38067 9.676 9.25C9.452 9.11933 9.34 9.026 9.34 8.97C9.34 8.90467 9.55467 8.80667 9.984 8.676C10.4133 8.536 10.8707 8.34467 11.356 8.102C11.8413 7.85 12.1633 7.74267 12.322 7.78C12.4807 7.808 12.63 7.83133 12.77 7.85Z"
      fill="white" />
  </g>
  <defs>
    <clipPath id="clip0_214_2">
      <rect width="24" height="24" fill="white" />
    </clipPath>
  </defs>
</svg>